<svg id="Layer_1" data-name="Layer 1" xmlns="http://www.w3.org/2000/svg" xmlns:xlink="http://www.w3.org/1999/xlink" viewBox="0 0 1938 1090"><defs><linearGradient id="linear-gradient" x1="993.66" y1="1183.73" x2="997.84" y2="231.48" gradientUnits="userSpaceOnUse"><stop offset="0" stop-color="#1f2052"/><stop offset="1" stop-color="#1f201d"/></linearGradient></defs><title>pig_backgrounds</title><rect x="-28" y="-33" width="2049" height="1138" style="fill:url(#linear-gradient)"/><circle cx="846" cy="622" r="6" style="fill:#fff;opacity:0.85"/><circle cx="917" cy="521" r="6" style="fill:#fff;opacity:0.85"/><circle cx="850" cy="396" r="6" style="fill:#fff;opacity:0.85"/><circle cx="980" cy="426" r="6" style="fill:#fff;opacity:0.85"/><circle cx="704" cy="631" r="6" style="fill:#fff;opacity:0.85"/><circle cx="769" cy="521" r="3" style="fill:#fff;opacity:0.85"/><circle cx="957" cy="628" r="3" style="fill:#fff;opacity:0.85"/><circle cx="1079.94" cy="545.76" r="6" transform="translate(-64.27 152.16) rotate(-7.83)" style="fill:#fff;opacity:0.85"/><circle cx="970.22" cy="489.18" r="6" transform="translate(-57.58 136.69) rotate(-7.83)" style="fill:#fff;opacity:0.85"/><circle cx="855.51" cy="572.58" r="6" transform="translate(-70.01 121.85) rotate(-7.83)" style="fill:#fff;opacity:0.85"/><circle cx="867.52" cy="439.7" r="6" transform="translate(-51.8 122.25) rotate(-7.83)" style="fill:#fff;opacity:0.85"/><circle cx="1108.2" cy="685.21" r="6" transform="translate(-82.99 157.31) rotate(-7.83)" style="fill:#fff;opacity:0.85"/><circle cx="990.37" cy="635.8" r="3" transform="translate(-77.36 140.8) rotate(-7.83)" style="fill:#fff;opacity:0.85"/><circle cx="1070.77" cy="434.98" r="3" transform="translate(-49.26 149.88) rotate(-7.83)" style="fill:#fff;opacity:0.85"/><circle cx="1174" cy="507" r="6" style="fill:#fff;opacity:0.85"/><circle cx="1245" cy="406" r="6" style="fill:#fff;opacity:0.85"/><circle cx="1178" cy="281" r="6" style="fill:#fff;opacity:0.85"/><circle cx="1308" cy="311" r="6" style="fill:#fff;opacity:0.85"/><circle cx="1032" cy="516" r="6" style="fill:#fff;opacity:0.85"/><circle cx="1097" cy="406" r="3" style="fill:#fff;opacity:0.85"/><circle cx="1285" cy="513" r="3" style="fill:#fff;opacity:0.85"/><circle cx="1407.94" cy="430.76" r="6" transform="translate(-45.55 195.76) rotate(-7.83)" style="fill:#fff;opacity:0.85"/><circle cx="1298.22" cy="374.18" r="6" transform="translate(-38.86 180.29) rotate(-7.83)" style="fill:#fff;opacity:0.85"/><circle cx="1183.51" cy="457.58" r="6" transform="translate(-51.29 165.45) rotate(-7.83)" style="fill:#fff;opacity:0.85"/><circle cx="1195.52" cy="324.7" r="6" transform="translate(-33.08 165.84) rotate(-7.83)" style="fill:#fff;opacity:0.85"/><circle cx="1436.2" cy="570.21" r="6" transform="translate(-64.28 200.91) rotate(-7.83)" style="fill:#fff;opacity:0.85"/><circle cx="1318.37" cy="520.8" r="3" transform="translate(-58.64 184.4) rotate(-7.83)" style="fill:#fff;opacity:0.85"/><circle cx="1398.77" cy="319.98" r="3" transform="matrix(0.99, -0.14, 0.14, 0.99, -30.55, 193.48)" style="fill:#fff;opacity:0.85"/><circle cx="1446.58" cy="855.95" r="16.38" style="fill:#a84395;opacity:0.85"/><path d="M1447.6,839.57c8.72.73,15.51,7.82,15.6,16.23A16.47,16.47,0,0,1,1448,872.27a16.79,16.79,0,0,0,13.12-15.92A17.12,17.12,0,0,0,1447.6,839.57Z" style="fill:#89377d;opacity:0.85"/><circle cx="1247" cy="587" r="6" style="fill:#fff;opacity:0.85"/><circle cx="852.78" cy="362.42" r="6" style="fill:#fff;opacity:0.85"/><circle cx="599.1" cy="394.04" r="6" style="fill:#fff;opacity:0.85"/><circle cx="915.78" cy="267.42" r="6" style="fill:#fff;opacity:0.85"/><circle cx="1015.73" cy="387.18" r="6" transform="translate(-43.27 141.94) rotate(-7.83)" style="fill:#fff;opacity:0.85"/><circle cx="906" cy="330.6" r="6" transform="translate(-36.58 126.47) rotate(-7.83)" style="fill:#fff;opacity:0.85"/><circle cx="791.29" cy="414" r="6" transform="translate(-49.01 111.62) rotate(-7.83)" style="fill:#fff;opacity:0.85"/><circle cx="637.89" cy="463.58" r="6" transform="translate(-37.71 56.92) rotate(-4.96)" style="fill:#fff;opacity:0.85"/><circle cx="1006.56" cy="276.4" r="3" transform="matrix(0.99, -0.14, 0.14, 0.99, -28.26, 139.66)" style="fill:#fff;opacity:0.85"/><circle cx="14.9" cy="911.38" r="6" style="fill:#fff;opacity:0.85"/><circle cx="85.9" cy="810.38" r="6" style="fill:#fff;opacity:0.85"/><circle cx="18.9" cy="685.38" r="6" style="fill:#fff;opacity:0.85"/><circle cx="148.9" cy="715.38" r="6" style="fill:#fff;opacity:0.85"/><circle cx="220.78" cy="999.59" r="6" style="fill:#fff;opacity:0.85"/><circle cx="397.6" cy="1056.06" r="3" style="fill:#fff;opacity:0.85"/><circle cx="125.9" cy="917.38" r="3" style="fill:#fff;opacity:0.85"/><circle cx="248.84" cy="835.14" r="6" transform="translate(-111.42 41.67) rotate(-7.83)" style="fill:#fff;opacity:0.85"/><circle cx="139.12" cy="778.55" r="6" transform="translate(-104.74 26.2) rotate(-7.83)" style="fill:#fff;opacity:0.85"/><circle cx="24.41" cy="861.95" r="6" transform="translate(-117.16 11.35) rotate(-7.83)" style="fill:#fff;opacity:0.85"/><circle cx="295.55" cy="896.44" r="6" transform="translate(-119.33 48.6) rotate(-7.83)" style="fill:#fff;opacity:0.85"/><circle cx="277.1" cy="974.59" r="6" transform="translate(-130.15 46.82) rotate(-7.83)" style="fill:#fff;opacity:0.85"/><circle cx="159.27" cy="925.17" r="3" transform="translate(-124.52 30.31) rotate(-7.83)" style="fill:#fff;opacity:0.85"/><circle cx="239.67" cy="724.35" r="3" transform="matrix(0.99, -0.14, 0.14, 0.99, -96.42, 39.39)" style="fill:#fff;opacity:0.85"/><circle cx="342.9" cy="796.38" r="6" style="fill:#fff;opacity:0.85"/><circle cx="413.9" cy="695.38" r="6" style="fill:#fff;opacity:0.85"/><circle cx="346.9" cy="570.38" r="6" style="fill:#fff;opacity:0.85"/><circle cx="476.9" cy="600.38" r="6" style="fill:#fff;opacity:0.85"/><circle cx="200.9" cy="805.38" r="6" style="fill:#fff;opacity:0.85"/><circle cx="265.9" cy="695.38" r="3" style="fill:#fff;opacity:0.85"/><circle cx="453.9" cy="802.38" r="3" style="fill:#fff;opacity:0.85"/><circle cx="576.84" cy="720.14" r="6" transform="translate(-92.7 85.27) rotate(-7.83)" style="fill:#fff;opacity:0.85"/><circle cx="467.12" cy="663.55" r="6" transform="translate(-86.02 69.8) rotate(-7.83)" style="fill:#fff;opacity:0.85"/><circle cx="352.41" cy="746.95" r="6" transform="translate(-98.44 54.95) rotate(-7.83)" style="fill:#fff;opacity:0.85"/><circle cx="364.42" cy="614.08" r="6" transform="translate(-80.24 55.35) rotate(-7.83)" style="fill:#fff;opacity:0.85"/><circle cx="605.1" cy="859.59" r="6" transform="translate(-111.43 90.42) rotate(-7.83)" style="fill:#fff;opacity:0.85"/><circle cx="487.27" cy="810.17" r="3" transform="translate(-105.8 73.91) rotate(-7.83)" style="fill:#fff;opacity:0.85"/><circle cx="567.67" cy="609.35" r="3" transform="matrix(0.99, -0.14, 0.14, 0.99, -77.7, 82.99)" style="fill:#fff;opacity:0.85"/><circle cx="415.9" cy="876.38" r="6" style="fill:#fff;opacity:0.85"/><circle cx="21.68" cy="651.8" r="6" style="fill:#fff;opacity:0.85"/><circle cx="84.68" cy="556.8" r="6" style="fill:#fff;opacity:0.85"/><circle cx="184.63" cy="676.56" r="6" transform="translate(-90.42 31.45) rotate(-7.83)" style="fill:#fff;opacity:0.85"/><circle cx="74.9" cy="619.98" r="6" transform="translate(-83.74 15.98) rotate(-7.83)" style="fill:#fff;opacity:0.85"/><circle cx="417.66" cy="981.42" r="6" transform="translate(-129.77 66.03) rotate(-7.83)" style="fill:#fff;opacity:0.85"/><circle cx="175.46" cy="565.78" r="3" transform="matrix(0.99, -0.14, 0.14, 0.99, -75.42, 29.17)" style="fill:#fff;opacity:0.85"/><circle cx="694" cy="830.26" r="6" transform="translate(-22.19 19.06) rotate(-1.55)" style="fill:#fff;opacity:0.85"/><circle cx="796.88" cy="898.51" r="6" transform="translate(-23.99 21.86) rotate(-1.55)" style="fill:#fff;opacity:0.85"/><circle cx="920.02" cy="828.16" r="6" transform="translate(-22.05 25.17) rotate(-1.55)" style="fill:#fff;opacity:0.85"/><circle cx="893.55" cy="958.92" r="6" transform="translate(-25.59 24.5) rotate(-1.55)" style="fill:#fff;opacity:0.85"/><circle cx="681.16" cy="688.56" r="6" transform="translate(-18.36 18.66) rotate(-1.55)" style="fill:#fff;opacity:0.85"/><circle cx="792.88" cy="750.56" r="3" transform="translate(-20 21.7) rotate(-1.55)" style="fill:#fff;opacity:0.85"/><circle cx="691" cy="941.39" r="3" transform="translate(-25.19 19.02) rotate(-1.55)" style="fill:#fff;opacity:0.85"/><circle cx="776.53" cy="1062.06" r="6" transform="translate(-162.65 140.7) rotate(-9.38)" style="fill:#fff;opacity:0.85"/><circle cx="519" cy="971.96" r="6" transform="translate(-151.41 97.54) rotate(-9.38)" style="fill:#fff;opacity:0.85"/><circle cx="743.66" cy="838.43" r="6" transform="translate(-126.66 132.36) rotate(-9.38)" style="fill:#fff;opacity:0.85"/><circle cx="90.68" cy="1030.08" r="6" transform="translate(-166.6 28.54) rotate(-9.38)" style="fill:#fff;opacity:0.85"/><circle cx="637.89" cy="1094.08" r="6" transform="translate(-169.72 118.54) rotate(-9.38)" style="fill:#fff;opacity:0.85"/><circle cx="684.11" cy="974.96" r="3" transform="translate(-149.7 124.48) rotate(-9.38)" style="fill:#fff;opacity:0.85"/><circle cx="887.03" cy="1049.9" r="3" transform="translate(-159.19 158.54) rotate(-9.38)" style="fill:#fff;opacity:0.85"/><circle cx="804.99" cy="1013.33" r="6" transform="translate(-27.09 22.13) rotate(-1.55)" style="fill:#fff;opacity:0.85"/><circle cx="916.7" cy="1075.34" r="3" transform="translate(-28.73 25.17) rotate(-1.55)" style="fill:#fff;opacity:0.85"/><circle cx="953.66" cy="830.03" r="6" transform="translate(-22.08 26.08) rotate(-1.55)" style="fill:#fff;opacity:0.85"/><circle cx="1076.81" cy="759.68" r="6" transform="translate(-20.14 29.38) rotate(-1.55)" style="fill:#fff;opacity:0.85"/><circle cx="1050.33" cy="890.44" r="6" transform="translate(-23.68 28.71) rotate(-1.55)" style="fill:#fff;opacity:0.85"/><circle cx="933.32" cy="993.58" r="6" transform="translate(-149.4 165.33) rotate(-9.38)" style="fill:#fff;opacity:0.85"/><circle cx="986.91" cy="882.37" r="6" transform="translate(-130.57 172.57) rotate(-9.38)" style="fill:#fff;opacity:0.85"/><circle cx="900.44" cy="769.95" r="6" transform="translate(-113.41 156.98) rotate(-9.38)" style="fill:#fff;opacity:0.85"/><circle cx="1033.59" cy="778.37" r="6" transform="translate(-113 178.79) rotate(-9.38)" style="fill:#fff;opacity:0.85"/><circle cx="1043.81" cy="981.42" r="3" transform="translate(-145.94 183.16) rotate(-9.38)" style="fill:#fff;opacity:0.85"/><circle cx="411.66" cy="412.97" r="6" transform="translate(-16.34 808.99) rotate(-87.87)" style="fill:#fff;opacity:0.85"/><circle cx="313.37" cy="338.26" r="6" transform="translate(-36.31 638.84) rotate(-87.87)" style="fill:#fff;opacity:0.85"/><circle cx="185.97" cy="400.57" r="6" transform="translate(-221.24 571.51) rotate(-87.87)" style="fill:#fff;opacity:0.85"/><circle cx="220.78" cy="271.77" r="6" transform="translate(-59.02 482.29) rotate(-87.87)" style="fill:#fff;opacity:0.85"/><circle cx="415.37" cy="555.21" r="6" transform="translate(-154.9 949.64) rotate(-87.87)" style="fill:#fff;opacity:0.85"/><circle cx="307.87" cy="486.16" r="3" transform="translate(-189.41 775.73) rotate(-87.87)" style="fill:#fff;opacity:0.85"/><circle cx="421.78" cy="302.27" r="3" transform="translate(104.04 712.52) rotate(-87.87)" style="fill:#fff;opacity:0.85"/><circle cx="344.17" cy="176.35" r="6" transform="translate(-15.8 35.03) rotate(-5.7)" style="fill:#fff;opacity:0.85"/><circle cx="283.55" cy="283.9" r="6" transform="translate(-26.78 29.54) rotate(-5.7)" style="fill:#fff;opacity:0.85"/><circle cx="362.62" cy="401.63" r="6" transform="translate(-38.07 37.97) rotate(-5.7)" style="fill:#fff;opacity:0.85"/><circle cx="230.29" cy="384.68" r="6" transform="translate(-37.04 24.76) rotate(-5.7)" style="fill:#fff;opacity:0.85"/><circle cx="484.58" cy="153.3" r="6" transform="translate(-12.82 48.85) rotate(-5.7)" style="fill:#fff;opacity:0.85"/><circle cx="430.82" cy="269.21" r="3" transform="translate(-24.59 44.09) rotate(-5.7)" style="fill:#fff;opacity:0.85"/><circle cx="233.13" cy="181.4" r="3" transform="matrix(1, -0.1, 0.1, 1, -16.85, 24.03)" style="fill:#fff;opacity:0.85"/><circle cx="308.94" cy="80.92" r="6" transform="translate(216.58 386.64) rotate(-87.87)" style="fill:#fff;opacity:0.85"/><circle cx="210.65" cy="6.21" r="6" transform="translate(196.61 216.49) rotate(-87.87)" style="fill:#fff;opacity:0.85"/><circle cx="83.24" cy="68.52" r="6" transform="translate(11.68 149.16) rotate(-87.87)" style="fill:#fff;opacity:0.85"/><circle cx="312.65" cy="223.16" r="6" transform="translate(78.02 527.29) rotate(-87.87)" style="fill:#fff;opacity:0.85"/><circle cx="205.15" cy="154.11" r="3" transform="translate(43.51 353.38) rotate(-87.87)" style="fill:#fff;opacity:0.85"/><circle cx="259.9" cy="69.58" r="6" transform="translate(-5.62 26.14) rotate(-5.7)" style="fill:#fff;opacity:0.85"/><circle cx="127.57" cy="52.63" r="6" transform="translate(-4.59 12.92) rotate(-5.7)" style="fill:#fff;opacity:0.85"/><circle cx="391.6" cy="10.95" r="6" transform="translate(366.1 401.87) rotate(-87.87)" style="fill:#fff;opacity:0.85"/><circle cx="152.51" cy="396.54" r="6" transform="translate(-249.42 534.2) rotate(-87.87)" style="fill:#fff;opacity:0.85"/><circle cx="25.11" cy="458.84" r="6" transform="translate(-434.35 466.87) rotate(-87.87)" style="fill:#fff;opacity:0.85"/><circle cx="59.92" cy="330.05" r="6" transform="translate(-272.12 377.65) rotate(-87.87)" style="fill:#fff;opacity:0.85"/><circle cx="183.32" cy="234.63" r="6" transform="translate(-22.38 19.35) rotate(-5.7)" style="fill:#fff;opacity:0.85"/><circle cx="122.69" cy="342.17" r="6" transform="translate(-33.35 13.87) rotate(-5.7)" style="fill:#fff;opacity:0.85"/><circle cx="201.77" cy="459.91" r="6" transform="translate(-44.65 22.3) rotate(-5.7)" style="fill:#fff;opacity:0.85"/><circle cx="69.43" cy="442.96" r="6" transform="translate(-43.62 9.08) rotate(-5.7)" style="fill:#fff;opacity:0.85"/><circle cx="72.27" cy="239.67" r="3" transform="matrix(1, -0.1, 0.1, 1, -23.43, 8.36)" style="fill:#fff;opacity:0.85"/><circle cx="701.92" cy="326.02" r="6" style="fill:#fff;opacity:0.85"/><circle cx="772.92" cy="225.02" r="6" style="fill:#fff;opacity:0.85"/><circle cx="522" cy="81.62" r="6" style="fill:#fff;opacity:0.85"/><circle cx="835.92" cy="130.02" r="6" style="fill:#fff;opacity:0.85"/><circle cx="559.92" cy="335.02" r="6" style="fill:#fff;opacity:0.85"/><circle cx="624.92" cy="225.02" r="3" style="fill:#fff;opacity:0.85"/><circle cx="812.92" cy="332.02" r="3" style="fill:#fff;opacity:0.85"/><circle cx="935.87" cy="249.78" r="6" transform="translate(-25.3 129.78) rotate(-7.83)" style="fill:#fff;opacity:0.85"/><circle cx="826.14" cy="193.2" r="6" transform="translate(-18.61 114.31) rotate(-7.83)" style="fill:#fff;opacity:0.85"/><circle cx="711.43" cy="276.6" r="6" transform="translate(-31.04 99.47) rotate(-7.83)" style="fill:#fff;opacity:0.85"/><circle cx="723.44" cy="143.72" r="6" transform="translate(-12.83 99.87) rotate(-7.83)" style="fill:#fff;opacity:0.85"/><circle cx="964.12" cy="389.23" r="6" transform="translate(-44.03 134.93) rotate(-7.83)" style="fill:#fff;opacity:0.85"/><circle cx="528" cy="235.67" r="3" transform="translate(-27.18 74.1) rotate(-7.83)" style="fill:#fff;opacity:0.85"/><circle cx="926.69" cy="139" r="3" transform="translate(-10.3 127.5) rotate(-7.83)" style="fill:#fff;opacity:0.85"/><circle cx="1029.92" cy="211.02" r="6" style="fill:#fff;opacity:0.85"/><circle cx="1100.92" cy="110.02" r="6" style="fill:#fff;opacity:0.85"/><circle cx="1163.92" cy="15.02" r="6" style="fill:#fff;opacity:0.85"/><circle cx="887.92" cy="220.02" r="6" style="fill:#fff;opacity:0.85"/><circle cx="952.92" cy="110.02" r="3" style="fill:#fff;opacity:0.85"/><circle cx="1140.92" cy="217.02" r="3" style="fill:#fff;opacity:0.85"/><circle cx="1263.87" cy="134.78" r="6" transform="translate(-6.58 173.38) rotate(-7.83)" style="fill:#fff;opacity:0.85"/><circle cx="1154.14" cy="78.2" r="6" transform="translate(0.1 157.91) rotate(-7.83)" style="fill:#fff;opacity:0.85"/><circle cx="1039.43" cy="161.6" r="6" transform="translate(-12.32 143.07) rotate(-7.83)" style="fill:#fff;opacity:0.85"/><circle cx="1051.44" cy="28.72" r="6" transform="translate(5.89 143.46) rotate(-7.83)" style="fill:#fff;opacity:0.85"/><circle cx="1292.12" cy="274.23" r="6" transform="translate(-25.31 178.53) rotate(-7.83)" style="fill:#fff;opacity:0.85"/><circle cx="1174.29" cy="224.82" r="3" transform="translate(-19.68 162.02) rotate(-7.83)" style="fill:#fff;opacity:0.85"/><circle cx="1254.69" cy="24" r="3" transform="matrix(0.99, -0.14, 0.14, 0.99, 8.42, 171.1)" style="fill:#fff;opacity:0.85"/><circle cx="1102.92" cy="291.02" r="6" style="fill:#fff;opacity:0.85"/><circle cx="708.71" cy="66.44" r="6" style="fill:#fff;opacity:0.85"/><circle cx="871.65" cy="91.2" r="6" transform="translate(-4.3 119.56) rotate(-7.83)" style="fill:#fff;opacity:0.85"/><circle cx="761.92" cy="34.62" r="6" transform="translate(2.38 104.09) rotate(-7.83)" style="fill:#fff;opacity:0.85"/><circle cx="647.21" cy="118.02" r="6" transform="translate(-10.04 89.24) rotate(-7.83)" style="fill:#fff;opacity:0.85"/><circle cx="1416.57" cy="235.67" r="6" transform="translate(212.35 1018.02) rotate(-42.46)" style="fill:#fff;opacity:0.85"/><circle cx="1539.01" cy="219.88" r="6" transform="translate(255.12 1096.54) rotate(-42.46)" style="fill:#fff;opacity:0.85"/><circle cx="1586.01" cy="86.07" r="6" transform="translate(357.77 1093.17) rotate(-42.46)" style="fill:#fff;opacity:0.85"/><circle cx="1651.63" cy="202.23" r="6" transform="translate(296.56 1167.93) rotate(-42.46)" style="fill:#fff;opacity:0.85"/><circle cx="1314.08" cy="136.98" r="6" transform="translate(252.1 922.96) rotate(-42.46)" style="fill:#fff;opacity:0.85"/><circle cx="1439.11" cy="110.68" r="3" transform="translate(302.63 1000.47) rotate(-42.46)" style="fill:#fff;opacity:0.85"/><circle cx="1487.07" cy="321.62" r="3" transform="translate(172.82 1088.15) rotate(-42.46)" style="fill:#fff;opacity:0.85"/><circle cx="1630.74" cy="356.81" r="6" transform="translate(314.26 1383.21) rotate(-50.28)" style="fill:#fff;opacity:0.85"/><circle cx="1598.42" cy="237.66" r="6" transform="translate(394.24 1315.33) rotate(-50.28)" style="fill:#fff;opacity:0.85"/><circle cx="1459.45" cy="209.32" r="6" transform="translate(365.87 1198.21) rotate(-50.28)" style="fill:#fff;opacity:0.85"/><circle cx="1565.6" cy="128.49" r="6" transform="translate(466.37 1250.68) rotate(-50.28)" style="fill:#fff;opacity:0.85"/><circle cx="1546.93" cy="471.79" r="6" transform="matrix(0.64, -0.77, 0.77, 0.64, 195.56, 1360.25)" style="fill:#fff;opacity:0.85"/><circle cx="1503.85" cy="351.5" r="3" transform="translate(272.53 1283.69) rotate(-50.28)" style="fill:#fff;opacity:0.85"/><circle cx="1706.28" cy="275.26" r="3" transform="translate(404.26 1411.88) rotate(-50.28)" style="fill:#fff;opacity:0.85"/><circle cx="1722.83" cy="400.04" r="6" transform="translate(181.7 1267.86) rotate(-42.46)" style="fill:#fff;opacity:0.85"/><circle cx="1845.27" cy="384.24" r="6" transform="translate(224.47 1346.37) rotate(-42.46)" style="fill:#fff;opacity:0.85"/><circle cx="1892.27" cy="250.43" r="6" transform="translate(327.12 1343) rotate(-42.46)" style="fill:#fff;opacity:0.85"/><circle cx="1620.33" cy="301.35" r="6" transform="translate(221.45 1172.79) rotate(-42.46)" style="fill:#fff;opacity:0.85"/><circle cx="1745.37" cy="275.05" r="3" transform="translate(271.99 1250.3) rotate(-42.46)" style="fill:#fff;opacity:0.85"/><circle cx="1793.33" cy="485.98" r="3" transform="translate(142.18 1337.98) rotate(-42.46)" style="fill:#fff;opacity:0.85"/><circle cx="1936.99" cy="521.18" r="6" transform="translate(298.39 1678.13) rotate(-50.28)" style="fill:#fff;opacity:0.85"/><circle cx="1904.67" cy="402.02" r="6" transform="translate(378.37 1610.25) rotate(-50.28)" style="fill:#fff;opacity:0.85"/><circle cx="1765.71" cy="373.69" r="6" transform="translate(350 1493.13) rotate(-50.28)" style="fill:#fff;opacity:0.85"/><circle cx="1871.85" cy="292.86" r="6" transform="translate(450.5 1545.6) rotate(-50.28)" style="fill:#fff;opacity:0.85"/><circle cx="1853.18" cy="636.16" r="6" transform="translate(179.69 1655.17) rotate(-50.28)" style="fill:#fff;opacity:0.85"/><circle cx="1810.1" cy="515.87" r="3" transform="translate(256.66 1578.61) rotate(-50.28)" style="fill:#fff;opacity:0.85"/><circle cx="1713.08" cy="507.9" r="6" transform="translate(106.34 1289.56) rotate(-42.46)" style="fill:#fff;opacity:0.85"/><circle cx="1612.66" cy="65.45" r="6" transform="translate(378.67 1105.76) rotate(-42.46)" style="fill:#fff;opacity:0.85"/><circle cx="1725.28" cy="47.81" r="6" transform="translate(420.12 1177.15) rotate(-42.46)" style="fill:#fff;opacity:0.85"/><circle cx="1704.39" cy="202.39" r="6" transform="translate(459.63 1384.12) rotate(-50.28)" style="fill:#fff;opacity:0.85"/><circle cx="1672.06" cy="83.24" r="6" transform="translate(539.62 1316.24) rotate(-50.28)" style="fill:#fff;opacity:0.85"/><circle cx="1533.1" cy="54.9" r="6" transform="translate(511.25 1199.11) rotate(-50.28)" style="fill:#fff;opacity:0.85"/><circle cx="1779.93" cy="120.84" r="3" transform="translate(549.64 1412.79) rotate(-50.28)" style="fill:#fff;opacity:0.85"/><circle cx="1314.91" cy="1038.68" r="6" style="fill:#fff;opacity:0.85"/><circle cx="1385.91" cy="937.68" r="6" style="fill:#fff;opacity:0.85"/><circle cx="1318.91" cy="812.68" r="6" style="fill:#fff;opacity:0.85"/><circle cx="1448.91" cy="842.68" r="6" style="fill:#fff;opacity:0.85"/><circle cx="1172.91" cy="1047.68" r="6" style="fill:#fff;opacity:0.85"/><circle cx="1237.91" cy="937.68" r="3" style="fill:#fff;opacity:0.85"/><circle cx="1425.91" cy="1044.68" r="3" style="fill:#fff;opacity:0.85"/><circle cx="1548.86" cy="962.44" r="6" transform="translate(-116.64 219.91) rotate(-7.83)" style="fill:#fff;opacity:0.85"/><circle cx="1439.13" cy="905.86" r="6" transform="translate(-109.96 204.44) rotate(-7.83)" style="fill:#fff;opacity:0.85"/><circle cx="1324.42" cy="989.26" r="6" transform="translate(-122.39 189.59) rotate(-7.83)" style="fill:#fff;opacity:0.85"/><circle cx="1336.44" cy="856.39" r="6" transform="translate(-104.18 189.99) rotate(-7.83)" style="fill:#fff;opacity:0.85"/><circle cx="1459.29" cy="1052.48" r="3" transform="translate(-129.74 208.55) rotate(-7.83)" style="fill:#fff;opacity:0.85"/><circle cx="1539.69" cy="851.66" r="3" transform="matrix(0.99, -0.14, 0.14, 0.99, -101.64, 217.63)" style="fill:#fff;opacity:0.85"/><circle cx="1642.91" cy="923.68" r="6" style="fill:#fff;opacity:0.85"/><circle cx="1713.91" cy="822.68" r="6" style="fill:#fff;opacity:0.85"/><circle cx="1646.91" cy="697.68" r="6" style="fill:#fff;opacity:0.85"/><circle cx="1776.91" cy="727.68" r="6" style="fill:#fff;opacity:0.85"/><circle cx="1500.91" cy="932.68" r="6" style="fill:#fff;opacity:0.85"/><circle cx="1565.91" cy="822.68" r="3" style="fill:#fff;opacity:0.85"/><circle cx="1753.91" cy="929.68" r="3" style="fill:#fff;opacity:0.85"/><circle cx="1876.86" cy="847.44" r="6" transform="translate(-97.93 263.51) rotate(-7.83)" style="fill:#fff;opacity:0.85"/><circle cx="1767.13" cy="790.86" r="6" transform="translate(-91.24 248.04) rotate(-7.83)" style="fill:#fff;opacity:0.85"/><circle cx="1652.42" cy="874.26" r="6" transform="translate(-103.67 233.19) rotate(-7.83)" style="fill:#fff;opacity:0.85"/><circle cx="1664.44" cy="741.39" r="6" transform="translate(-85.46 233.59) rotate(-7.83)" style="fill:#fff;opacity:0.85"/><circle cx="1905.11" cy="986.89" r="6" transform="translate(-116.66 268.65) rotate(-7.83)" style="fill:#fff;opacity:0.85"/><circle cx="1787.29" cy="937.48" r="3" transform="translate(-111.02 252.15) rotate(-7.83)" style="fill:#fff;opacity:0.85"/><circle cx="1867.69" cy="736.66" r="3" transform="matrix(0.99, -0.14, 0.14, 0.99, -82.92, 261.23)" style="fill:#fff;opacity:0.85"/><circle cx="1715.91" cy="1003.68" r="6" style="fill:#fff;opacity:0.85"/><circle cx="1321.7" cy="779.1" r="6" style="fill:#fff;opacity:0.85"/><circle cx="1254.7" cy="654.1" r="6" style="fill:#fff;opacity:0.85"/><circle cx="1384.7" cy="684.1" r="6" style="fill:#fff;opacity:0.85"/><circle cx="1484.64" cy="803.87" r="6" transform="translate(-95.65 209.68) rotate(-7.83)" style="fill:#fff;opacity:0.85"/><circle cx="1374.91" cy="747.28" r="6" transform="translate(-88.96 194.21) rotate(-7.83)" style="fill:#fff;opacity:0.85"/><circle cx="1260.2" cy="830.68" r="6" transform="translate(-101.39 179.37) rotate(-7.83)" style="fill:#fff;opacity:0.85"/><circle cx="1272.22" cy="697.81" r="6" transform="translate(-83.18 179.77) rotate(-7.83)" style="fill:#fff;opacity:0.85"/><circle cx="1475.47" cy="693.08" r="3" transform="matrix(0.99, -0.14, 0.14, 0.99, -80.64, 207.4)" style="fill:#fff;opacity:0.85"/><path d="M399.52,295c76.3,6.65,135.68,70.79,136.48,147,.81,76.82-58.15,142.52-135,150,67.47-16.77,115.5-76.68,117-145C519.54,375.76,470.11,311.84,399.52,295Z" style="fill:#3d8b93"/><circle cx="387.5" cy="443.5" r="148.5" style="fill:#51c4d6"/><circle cx="355.5" cy="402.5" r="29.5" style="fill:#3d8b93"/><path d="M357.33,373c15.7,1.32,27.92,14.07,28.08,29.22s-11.51,28.17-27.32,29.65c13.88-3.33,23.31-15.08,23.62-28.66C382,389.06,371.86,376.35,357.33,373Z" style="fill:#295d60"/><circle cx="400.74" cy="492.76" r="13.24" style="fill:#3d8b93"/><path d="M401.56,479.52a13.57,13.57,0,0,1,12.6,13.12,13.31,13.31,0,0,1-12.26,13.31,13.57,13.57,0,0,0,10.6-12.86A13.84,13.84,0,0,0,401.56,479.52Z" style="fill:#295d60;opacity:0.89"/><circle cx="1505" cy="848" r="99" style="fill:#d353b8"/><path d="M1535.11,752.82c48.9,14.69,79,64.61,69.14,114.46-9.89,50.25-57.29,85.14-108.45,79.59,46.31-1.79,85.79-34.38,96-78.77C1602.49,821.82,1578.9,773.39,1535.11,752.82Z" style="fill:#a84395"/><circle cx="1528.5" cy="818.84" r="29.5" style="fill:#a84395"/><path d="M1530.33,789.34c15.7,1.32,27.92,14.07,28.08,29.22s-11.51,28.17-27.32,29.65c13.88-3.33,23.31-15.08,23.62-28.66C1555,805.39,1544.86,792.68,1530.33,789.34Z" style="fill:#89377d"/><circle cx="1524.84" cy="902.2" r="8.64" style="fill:#a84395"/><path d="M1525.38,893.56a8.86,8.86,0,0,1,8.22,8.56,8.68,8.68,0,0,1-8,8.68,8.85,8.85,0,0,0,6.92-8.39A9,9,0,0,0,1525.38,893.56Z" style="fill:#89377d"/><circle cx="1452.16" cy="873.69" r="19.03" style="fill:#a84395"/><path d="M1453.34,854.66c10.13.85,18,9.08,18.12,18.85a19.13,19.13,0,0,1-17.63,19.13,19.5,19.5,0,0,0,15.24-18.49C1469.28,865,1462.71,856.82,1453.34,854.66Z" style="fill:#89377d"/><circle cx="1147.09" cy="246.3" r="99" style="fill:#f4bd5d"/><path d="M1177.2,151.12c48.9,14.69,79,64.61,69.14,114.46-9.89,50.25-57.29,85.14-108.45,79.59,46.31-1.79,85.79-34.38,96-78.77C1244.58,220.11,1221,171.68,1177.2,151.12Z" style="fill:#ba8c42"/><circle cx="1166.93" cy="300.49" r="8.64" style="fill:#ce9d4d"/><path d="M1167.46,291.85a8.86,8.86,0,0,1,8.22,8.56,8.68,8.68,0,0,1-8,8.68,8.85,8.85,0,0,0,6.92-8.39A9,9,0,0,0,1167.46,291.85Z" style="fill:#aa8043"/><circle cx="1094.25" cy="271.99" r="19.03" style="fill:#ce9d4d"/><path d="M1095.43,253c10.13.85,18,9.08,18.12,18.85a19.13,19.13,0,0,1-17.63,19.13,19.5,19.5,0,0,0,15.24-18.49C1111.36,263.32,1104.8,255.12,1095.43,253Z" style="fill:#aa8043"/></svg>