<svg id="Layer_1" data-name="Layer 1" xmlns="http://www.w3.org/2000/svg" xmlns:xlink="http://www.w3.org/1999/xlink" viewBox="0 0 1920 1138"><defs><linearGradient id="linear-gradient" x1="946.5" y1="1245" x2="946.5" y2="381" gradientUnits="userSpaceOnUse"><stop offset="0" stop-color="#0096d4"/><stop offset="1" stop-color="#003394"/></linearGradient></defs><title>pig_backgrounds</title><rect x="-78" y="5" width="2049" height="1138" style="fill:url(#linear-gradient)"/><circle cx="1773.99" cy="22.64" r="6" transform="translate(0.63 74.91) rotate(-2.42)" style="fill:#fff;opacity:0.85"/><circle cx="1707.32" cy="126.55" r="6" transform="translate(-3.82 72.19) rotate(-2.42)" style="fill:#fff;opacity:0.85"/><circle cx="1662.84" cy="21.33" r="3" transform="translate(0.58 70.22) rotate(-2.42)" style="fill:#fff;opacity:0.85"/><circle cx="1766.58" cy="72.42" r="6" transform="translate(15.29 315.42) rotate(-10.25)" style="fill:#fff;opacity:0.85"/><circle cx="1629.16" cy="14.95" r="3" transform="translate(23.33 290.05) rotate(-10.25)" style="fill:#fff;opacity:0.85"/><g style="opacity:0.85"><circle cx="722.02" cy="-0.45" r="6" style="fill:#fff;opacity:0.89"/><circle cx="833.02" cy="5.55" r="3" style="fill:#fff;opacity:0.89"/><circle cx="984.22" cy="62.76" r="6" transform="translate(0.62 134.63) rotate(-7.83)" style="fill:#fff;opacity:0.89"/><circle cx="866.39" cy="13.35" r="3" transform="translate(6.25 118.12) rotate(-7.83)" style="fill:#fff;opacity:0.89"/><circle cx="1398.12" cy="29.56" r="3" transform="translate(-0.29 37.8) rotate(-1.55)" style="fill:#fff;opacity:0.89"/><circle cx="1226.12" cy="60.13" r="6" transform="translate(6.59 200.56) rotate(-9.38)" style="fill:#fff;opacity:0.89"/><circle cx="1391.23" cy="63.13" r="3" transform="translate(8.3 227.5) rotate(-9.38)" style="fill:#fff;opacity:0.89"/></g><g style="opacity:0.85"><circle cx="4.11" cy="146.44" r="6" style="fill:#fff;opacity:0.89"/><circle cx="75.11" cy="45.44" r="6" style="fill:#fff;opacity:0.89"/><circle cx="115.11" cy="152.44" r="3" style="fill:#fff;opacity:0.89"/><circle cx="238.05" cy="70.2" r="6" transform="translate(-7.34 33.07) rotate(-7.83)" style="fill:#fff;opacity:0.89"/><circle cx="13.61" cy="97.02" r="6" transform="translate(-13.09 2.76) rotate(-7.83)" style="fill:#fff;opacity:0.89"/><circle cx="284.76" cy="131.51" r="6" transform="translate(-15.26 40.01) rotate(-7.83)" style="fill:#fff;opacity:0.89"/><circle cx="266.31" cy="209.65" r="6" transform="translate(-26.07 38.22) rotate(-7.83)" style="fill:#fff;opacity:0.89"/><circle cx="148.48" cy="160.24" r="3" transform="translate(-20.44 21.71) rotate(-7.83)" style="fill:#fff;opacity:0.89"/><circle cx="332.11" cy="31.44" r="6" style="fill:#fff;opacity:0.89"/><circle cx="190.11" cy="40.44" r="6" style="fill:#fff;opacity:0.89"/><circle cx="443.11" cy="37.44" r="3" style="fill:#fff;opacity:0.89"/><circle cx="594.31" cy="94.65" r="6" transform="translate(-7.35 81.82) rotate(-7.83)" style="fill:#fff;opacity:0.89"/><circle cx="476.48" cy="45.24" r="3" transform="translate(-1.72 65.31) rotate(-7.83)" style="fill:#fff;opacity:0.89"/><circle cx="405.11" cy="111.44" r="6" style="fill:#fff;opacity:0.89"/><circle cx="683.21" cy="65.33" r="6" transform="translate(-1.52 18.49) rotate(-1.55)" style="fill:#fff;opacity:0.89"/><circle cx="786.09" cy="133.58" r="6" transform="translate(-3.32 21.29) rotate(-1.55)" style="fill:#fff;opacity:0.89"/><circle cx="680.21" cy="176.45" r="3" transform="translate(-4.52 18.45) rotate(-1.55)" style="fill:#fff;opacity:0.89"/><circle cx="508.21" cy="207.02" r="6" transform="translate(-26.94 85.56) rotate(-9.38)" style="fill:#fff;opacity:0.89"/><circle cx="732.87" cy="73.5" r="6" transform="translate(-2.18 120.38) rotate(-9.38)" style="fill:#fff;opacity:0.89"/><circle cx="673.31" cy="210.02" r="3" transform="translate(-25.22 112.5) rotate(-9.38)" style="fill:#fff;opacity:0.89"/></g><path d="M273.73,752.87c12.74-21.9,31.45-33.25,56.16-29.87,30.78,4.21,45.47,24.84,48.86,54.83,5.7-.48,10.92-1.25,16.15-1.3,28.09-.28,52.95,21.15,55.88,48,3.42,31.28-14.59,57.83-43.67,63.95-5.16,1.09-10.85,2.26-15.79,1.14-7.56-1.73-11.5,1.35-16.39,6.4-14.85,15.35-38.94,18.9-58.42,9.54-2.91-1.4-5.7-3-8.79-4.68-11.47,9.34-24.27,14.8-39.45,14.45-13.57-.32-25.4-4.65-35.58-13.39-2.79-2.4-4.91-3.08-8.53-1.68-35.7,13.81-70.44-5.08-78.42-42.46C139.23,827.32,164,794.21,195.3,792c3.76-.27,6.17-1,6.85-5,4.77-28.1,37.54-48.63,69.11-34.69A16.09,16.09,0,0,0,273.73,752.87Z" style="fill:#fff;opacity:0.9500000000000001"/><path d="M1576.35,1015.86c-27.09,25-67.63,20.44-86.46-9.31-10.85,2.22-21,5.79-31.26,6.1-27,.83-49.93-19.58-52.82-45.39-3.14-28.07,13.51-53.44,40-59.25,8.25-1.81,13-4.6,16.9-12.67,7.32-15.08,21.13-21.37,37.78-21,3.59.07,6.27.09,8.56-3.81,12.25-20.88,30.88-31.33,54.94-29.34,23.42,1.93,39.91,14.67,48.83,36.71a19.8,19.8,0,0,0,1.69,2.68c12-6.16,24.32-8.43,37.42-3.85,16.86,5.89,26.82,17.7,29.93,35,.84,4.69,3.13,6.07,7.06,7,21.91,4.91,37.12,22.71,37.67,43.94.6,23.08-13.29,42.79-35.26,48-7.59,1.79-15.94.33-23.93.51-2,0-4.93-.08-6,1.13C1639.9,1036.67,1602.24,1039,1576.35,1015.86Z" style="fill:#fff"/><path d="M380,782.77c-.84-34.42-28.76-61.18-59.88-60.33-33,.89-60.42,32.6-56.29,69,5.68-31.58,28.68-54.89,55.8-56.64C346.37,733,371.12,752.67,380,782.77Z" style="fill:#d8d8d8"/><path d="M270.45,751.83c-25.71-11.61-54.78-1.68-64.54,20.26-10.35,23.27,3.95,53.55,32.18,63.56-21.44-15.14-31-39.38-23.25-58.86C222.49,757.57,245.26,747.32,270.45,751.83Z" style="fill:#d8d8d8"/><path d="M382,854.05c-.6-20.06-20.73-35.66-43.17-35.17-23.81.52-43.56,19-40.58,40.19,4.09-18.41,20.67-32,40.23-33C357.76,825.05,375.6,836.51,382,854.05Z" style="fill:#d8d8d8"/><path d="M1614.33,883.09c-.82-27.59-28.13-49-58.59-48.37-32.31.72-59.11,26.14-55.07,55.28,5.56-25.32,28.06-44,54.59-45.41C1581.46,843.2,1605.67,859,1614.33,883.09Z" style="fill:#d8d8d8"/><path d="M1686.76,928.65c2.83-27.45-19.11-52-46.76-54.88-29.33-3.11-56.87,18.93-57,48.31,8.3-24.45,31.08-40.32,55.28-38.58C1662.17,885.22,1682,903.7,1686.76,928.65Z" style="fill:#d8d8d8"/><path d="M1504.52,981.26c-.39-12-13.25-21.29-27.6-21-15.22.31-27.84,11.34-25.94,24,2.62-11,13.22-19.1,25.72-19.71C1489,963.95,1500.44,970.79,1504.52,981.26Z" style="fill:#d8d8d8"/><path d="M1557.62,964.15c-.51-15.62-17.71-27.77-36.87-27.39-20.33.4-37.2,14.8-34.66,31.3,3.5-14.34,17.66-24.92,34.36-25.71C1536.93,941.57,1552.17,950.49,1557.62,964.15Z" style="fill:#d8d8d8"/></svg>