<svg id="Layer_1" data-name="Layer 1" xmlns="http://www.w3.org/2000/svg" xmlns:xlink="http://www.w3.org/1999/xlink" viewBox="0 0 1921 1138"><defs><linearGradient id="linear-gradient" x1="938.69" y1="465.33" x2="982.69" y2="1661.33" gradientUnits="userSpaceOnUse"><stop offset="0" stop-color="#0096d4"/><stop offset="1" stop-color="#15dbff"/></linearGradient></defs><title>pig_backgrounds</title><rect x="-82" width="2049" height="1138" style="fill:url(#linear-gradient)"/><path d="M347.77,190.52c20.72-9.48,41.5-11.3,62.94-5.39,38.21,10.53,65.61,47.62,64.11,87-1.57,41.1-29.94,76.31-69.11,83.64-12,2.25-24.83.86-37.24.27-4.84-.23-8-.2-11.39,4.14-24.27,30.76-65.21,34.53-94.25,8.65-4.42-3.94-7.33-4.14-12.51-1.74-52.48,24.39-110.91-4-124.42-60.2-11.59-48.19,21.8-98.38,70.69-106,6.33-1,9-3.09,9.15-10.18.83-29.7,27.22-58.82,56.67-63.49,40.71-6.45,73.92,16,83.33,56.35C346.2,185.55,346.85,187.43,347.77,190.52Z" style="fill:#fff;opacity:0.96"/><path d="M346.23,186.34c-1-34.42-34.93-61.18-72.73-60.33-40.11.89-73.38,32.6-68.37,69,6.9-31.58,34.83-54.89,67.77-56.64C305.41,136.59,335.47,156.24,346.23,186.34Z" style="fill:#d8d8d8"/><path d="M232.43,376.34c-48.62,11.75-97.32-19.57-108.56-66.07-11.93-49.33,21.63-101.95,74.28-109.55-42,20.35-65.57,63.27-57.2,104.17C149.2,345.27,186.66,374.57,232.43,376.34Z" style="fill:#d8d8d8"/><path d="M237.55,301.83c-1.06-32.05,24.94-58.55,55.59-59.56,32.52-1.08,61.19,26.83,59.11,60.87-7.31-29-31.19-49.39-58-49.45C267.88,253.63,244.61,273.33,237.55,301.83Z" style="fill:#d8d8d8"/><path d="M333.76,269c-.68-20.55,16-37.53,35.63-38.18,20.85-.69,39.22,17.2,37.89,39-4.68-18.62-20-31.66-37.15-31.7C353.2,238.1,338.29,250.73,333.76,269Z" style="fill:#d8d8d8"/><path d="M794.1,689.63c-28.94,26.73-72.24,21.83-92.35-9.94-11.59,2.37-22.44,6.18-33.39,6.52-28.8.88-53.34-20.92-56.42-48.48-3.35-30,14.43-57.08,42.78-63.29,8.82-1.93,13.87-4.92,18.05-13.53,7.82-16.11,22.57-22.82,40.36-22.45,3.83.08,6.69.1,9.14-4.07,13.09-22.31,33-33.47,58.68-31.35,25,2.06,42.63,15.67,52.16,39.21a21.15,21.15,0,0,0,1.8,2.86c12.81-6.58,26-9,40-4.12,18,6.29,28.64,18.91,32,37.41.9,5,3.34,6.49,7.54,7.43,23.4,5.25,39.65,24.26,40.24,46.94.64,24.65-14.19,45.7-37.66,51.25-8.11,1.92-17,.35-25.56.54-2.19,0-5.27-.09-6.41,1.21C862,711.86,821.75,714.4,794.1,689.63Z" style="fill:#fff"/><path d="M834.67,547.81c-.87-29.47-30.05-52.39-62.58-51.67-34.51.76-63.14,27.92-58.83,59,5.93-27,30-47,58.31-48.5C799.55,505.2,825.42,522,834.67,547.81Z" style="fill:#d8d8d8"/><path d="M912,596.47c3-29.33-20.41-55.5-49.94-58.63-31.33-3.32-60.75,20.23-60.88,51.6,8.87-26.12,33.2-43.07,59-41.21C885.77,550.08,907,569.82,912,596.47Z" style="fill:#d8d8d8"/><path d="M717.37,652.67c-.41-12.79-14.16-22.74-29.48-22.43-16.26.33-29.74,12.12-27.71,25.63,2.8-11.74,14.12-20.4,27.47-21.05C700.83,634.18,713,641.49,717.37,652.67Z" style="fill:#d8d8d8"/><path d="M774.09,634.4c-.55-16.69-18.91-29.67-39.39-29.26-21.72.43-39.74,15.81-37,33.44,3.73-15.32,18.86-26.62,36.7-27.47C752,610.27,768.27,619.8,774.09,634.4Z" style="fill:#d8d8d8"/><path d="M1438.19,178.49c15-25.75,37-39.09,66-35.11,36.18,4.95,53.46,29.2,57.44,64.46,6.71-.56,12.84-1.47,19-1.53,33-.33,62.25,24.87,65.7,56.42,4,36.77-17.15,68-51.34,75.18-6.06,1.28-12.76,2.66-18.56,1.33-8.89-2-13.52,1.58-19.27,7.53-17.45,18-45.79,22.22-68.68,11.22-3.42-1.64-6.7-3.56-10.34-5.51-13.49,11-28.54,17.4-46.38,17-16-.37-29.86-5.47-41.83-15.74-3.28-2.82-5.78-3.62-10-2-42,16.24-82.82-6-92.2-49.92-7.65-35.83,21.53-74.76,58.28-77.39,4.42-.32,7.25-1.14,8.05-5.87,5.61-33,44.14-57.17,81.25-40.78A18.92,18.92,0,0,0,1438.19,178.49Z" style="fill:#fff;opacity:0.9500000000000001"/><path d="M1563.1,213.64c-1-40.46-33.81-71.92-70.4-70.93-38.83,1-71,38.33-66.18,81.07,6.68-37.13,33.72-64.53,65.6-66.59C1523.59,155.15,1552.69,178.25,1563.1,213.64Z" style="fill:#d8d8d8"/><path d="M1434.34,177.26c-30.22-13.65-64.41-2-75.88,23.82-12.17,27.36,4.64,63,37.84,74.73-25.21-17.8-36.44-46.3-27.33-69.2C1378,184,1404.72,172,1434.34,177.26Z" style="fill:#d8d8d8"/><path d="M1565.47,297.45c-.71-23.58-24.37-41.92-50.75-41.35-28,.61-51.21,22.34-47.71,47.25,4.81-21.64,24.31-37.61,47.29-38.82C1537,263.35,1558,276.82,1565.47,297.45Z" style="fill:#d8d8d8"/></svg>