<svg id="Layer_1" data-name="Layer 1" xmlns="http://www.w3.org/2000/svg" xmlns:xlink="http://www.w3.org/1999/xlink" viewBox="0 0 1920 1080"><defs><linearGradient id="linear-gradient" x1="932.45" y1="259.24" x2="964.45" y2="1411.24" gradientUnits="userSpaceOnUse"><stop offset="0" stop-color="#1f2052"/><stop offset="1" stop-color="#003394"/></linearGradient></defs><title>pig_backgrounds</title><rect x="-84" y="-20" width="2049" height="1138" style="fill:url(#linear-gradient)"/><g style="opacity:0.85"><circle cx="24.01" cy="107.3" r="3" style="fill:#fff;opacity:0.89"/><circle cx="146.95" cy="25.06" r="6" transform="translate(-2.04 20.25) rotate(-7.83)" style="fill:#fff;opacity:0.89"/><circle cx="193.66" cy="86.36" r="6" transform="translate(-9.96 27.18) rotate(-7.83)" style="fill:#fff;opacity:0.89"/><circle cx="175.21" cy="164.51" r="6" transform="translate(-20.77 25.39) rotate(-7.83)" style="fill:#fff;opacity:0.89"/><circle cx="57.38" cy="115.09" r="3" transform="translate(-15.14 8.89) rotate(-7.83)" style="fill:#fff;opacity:0.89"/><circle cx="99.01" cy="-4.7" r="6" style="fill:#fff;opacity:0.89"/><circle cx="503.21" cy="49.51" r="6" transform="translate(-2.05 68.99) rotate(-7.83)" style="fill:#fff;opacity:0.89"/><circle cx="385.38" cy="0.09" r="3" transform="translate(3.58 52.49) rotate(-7.83)" style="fill:#fff;opacity:0.89"/><circle cx="314.01" cy="66.3" r="6" style="fill:#fff;opacity:0.89"/><circle cx="592.11" cy="20.19" r="6" transform="translate(-0.33 16.01) rotate(-1.55)" style="fill:#fff;opacity:0.89"/><circle cx="694.99" cy="88.43" r="6" transform="translate(-2.14 18.82) rotate(-1.55)" style="fill:#fff;opacity:0.89"/><circle cx="589.11" cy="131.31" r="3" transform="translate(-3.33 15.97) rotate(-1.55)" style="fill:#fff;opacity:0.89"/><circle cx="417.11" cy="161.88" r="6" transform="translate(-20.8 70.12) rotate(-9.38)" style="fill:#fff;opacity:0.89"/><circle cx="641.77" cy="28.35" r="6" transform="translate(3.96 104.93) rotate(-9.38)" style="fill:#fff;opacity:0.89"/><circle cx="582.22" cy="164.88" r="3" transform="translate(-19.08 97.05) rotate(-9.38)" style="fill:#fff;opacity:0.89"/></g><g style="opacity:0.85"><circle cx="486.56" cy="207.36" r="6" style="fill:#fff;opacity:0.89"/><circle cx="557.56" cy="106.36" r="6" style="fill:#fff;opacity:0.89"/><circle cx="597.56" cy="213.36" r="3" style="fill:#fff;opacity:0.89"/><circle cx="720.5" cy="131.12" r="6" transform="translate(-11.14 99.35) rotate(-7.83)" style="fill:#fff;opacity:0.89"/><circle cx="496.06" cy="157.94" r="6" transform="translate(-16.89 69.03) rotate(-7.83)" style="fill:#fff;opacity:0.89"/><circle cx="767.21" cy="192.43" r="6" transform="translate(-19.06 106.28) rotate(-7.83)" style="fill:#fff;opacity:0.89"/><circle cx="748.76" cy="270.57" r="6" transform="translate(-29.87 104.5) rotate(-7.83)" style="fill:#fff;opacity:0.89"/><circle cx="630.93" cy="221.16" r="3" transform="translate(-24.24 87.99) rotate(-7.83)" style="fill:#fff;opacity:0.89"/><circle cx="814.56" cy="92.36" r="6" style="fill:#fff;opacity:0.89"/><circle cx="672.56" cy="101.36" r="6" style="fill:#fff;opacity:0.89"/><circle cx="925.56" cy="98.36" r="3" style="fill:#fff;opacity:0.89"/><circle cx="1076.76" cy="155.57" r="6" transform="translate(-11.16 148.09) rotate(-7.83)" style="fill:#fff;opacity:0.89"/><circle cx="958.93" cy="106.16" r="3" transform="translate(-5.52 131.59) rotate(-7.83)" style="fill:#fff;opacity:0.89"/><circle cx="887.56" cy="172.36" r="6" style="fill:#fff;opacity:0.89"/><circle cx="1165.65" cy="126.25" r="6" transform="translate(-2.99 31.55) rotate(-1.55)" style="fill:#fff;opacity:0.89"/><circle cx="1268.54" cy="194.49" r="6" transform="translate(-4.79 34.35) rotate(-1.55)" style="fill:#fff;opacity:0.89"/><circle cx="1162.66" cy="237.37" r="3" transform="translate(-5.99 31.51) rotate(-1.55)" style="fill:#fff;opacity:0.89"/><circle cx="990.66" cy="267.94" r="6" transform="translate(-30.42 164.97) rotate(-9.38)" style="fill:#fff;opacity:0.89"/><circle cx="1215.32" cy="134.42" r="6" transform="translate(-5.66 199.79) rotate(-9.38)" style="fill:#fff;opacity:0.89"/><circle cx="1155.76" cy="270.94" r="3" transform="translate(-28.7 191.91) rotate(-9.38)" style="fill:#fff;opacity:0.89"/></g><circle cx="1525.7" cy="267.42" r="3" transform="matrix(0.99, -0.14, 0.14, 0.99, -22.2, 210.28)" style="fill:#fff;opacity:0.85"/><circle cx="1543.5" cy="183.12" r="6" transform="translate(281.11 1089.93) rotate(-42.46)" style="fill:#fff;opacity:0.85"/><circle cx="1665.95" cy="167.32" r="6" transform="translate(323.88 1168.44) rotate(-42.46)" style="fill:#fff;opacity:0.85"/><circle cx="1712.94" cy="33.51" r="6" transform="translate(426.53 1165.08) rotate(-42.46)" style="fill:#fff;opacity:0.85"/><circle cx="1778.56" cy="149.67" r="6" transform="translate(365.32 1239.83) rotate(-42.46)" style="fill:#fff;opacity:0.85"/><circle cx="1566.04" cy="58.13" r="3" transform="translate(371.39 1072.37) rotate(-42.46)" style="fill:#fff;opacity:0.85"/><circle cx="1757.67" cy="304.25" r="6" transform="translate(400.51 1461.88) rotate(-50.28)" style="fill:#fff;opacity:0.85"/><circle cx="1725.35" cy="185.1" r="6" transform="translate(480.5 1394) rotate(-50.28)" style="fill:#fff;opacity:0.85"/><circle cx="1692.53" cy="75.94" r="6" transform="translate(552.62 1329.34) rotate(-50.28)" style="fill:#fff;opacity:0.85"/><circle cx="1630.78" cy="298.95" r="3" transform="translate(358.78 1362.35) rotate(-50.28)" style="fill:#fff;opacity:0.85"/><circle cx="1833.21" cy="222.71" r="3" transform="translate(490.51 1490.55) rotate(-50.28)" style="fill:#fff;opacity:0.85"/><circle cx="1747.26" cy="248.79" r="6" transform="translate(290.21 1244.69) rotate(-42.46)" style="fill:#fff;opacity:0.85"/><circle cx="1872.3" cy="222.5" r="3" transform="translate(340.74 1322.2) rotate(-42.46)" style="fill:#fff;opacity:0.85"/><circle cx="1892.64" cy="321.13" r="6" transform="translate(436.25 1571.79) rotate(-50.28)" style="fill:#fff;opacity:0.85"/><circle cx="1739.6" cy="12.9" r="6" transform="translate(447.43 1177.66) rotate(-42.46)" style="fill:#fff;opacity:0.85"/><circle cx="1852.21" cy="-4.75" r="6" transform="translate(488.87 1249.06) rotate(-42.46)" style="fill:#fff;opacity:0.85"/><circle cx="1831.32" cy="149.83" r="6" transform="translate(545.89 1462.78) rotate(-50.28)" style="fill:#fff;opacity:0.85"/><circle cx="1799" cy="30.68" r="6" transform="translate(625.87 1394.9) rotate(-50.28)" style="fill:#fff;opacity:0.85"/><circle cx="1660.03" cy="2.35" r="6" transform="translate(597.5 1277.78) rotate(-50.28)" style="fill:#fff;opacity:0.85"/><circle cx="1906.86" cy="68.28" r="3" transform="translate(635.89 1491.45) rotate(-50.28)" style="fill:#fff;opacity:0.85"/><circle cx="1322.2" cy="37.05" r="3" transform="translate(19.89 268.51) rotate(-11.68)" style="fill:#fff;opacity:0.85"/><circle cx="1407.51" cy="49.14" r="6" transform="translate(399.77 1032.99) rotate(-46.31)" style="fill:#fff;opacity:0.85"/><circle cx="1431.51" cy="170.24" r="6" transform="translate(319.62 1087.8) rotate(-46.31)" style="fill:#fff;opacity:0.85"/><circle cx="1568.18" cy="208.14" r="6" transform="translate(334.49 1198.34) rotate(-46.31)" style="fill:#fff;opacity:0.85"/><circle cx="1533.73" cy="63.22" r="3" transform="translate(428.62 1128.62) rotate(-46.31)" style="fill:#fff;opacity:0.85"/><circle cx="1326.5" cy="125.26" r="3" transform="translate(319.67 997.95) rotate(-46.31)" style="fill:#fff;opacity:0.85"/><circle cx="1436.69" cy="90.15" r="6" transform="translate(522 1201.7) rotate(-54.14)" style="fill:#fff;opacity:0.85"/><circle cx="1297.81" cy="144.01" r="3" transform="translate(420.83 1111.46) rotate(-54.14)" style="fill:#fff;opacity:0.85"/><circle cx="1387.5" cy="340.86" r="3" transform="translate(298.44 1265.67) rotate(-54.14)" style="fill:#fff;opacity:0.85"/><circle cx="1424.77" cy="524.75" r="6" transform="translate(61.19 1192.57) rotate(-46.31)" style="fill:#fff;opacity:0.85"/><circle cx="1355.69" cy="256.86" r="6" transform="translate(233.54 1059.76) rotate(-46.31)" style="fill:#fff;opacity:0.85"/><circle cx="1381.07" cy="507.23" r="6" transform="matrix(0.59, -0.81, 0.81, 0.59, 160.94, 1329.38)" style="fill:#fff;opacity:0.85"/><circle cx="1590.53" cy="233.34" r="6" transform="translate(323.17 1222.3) rotate(-46.31)" style="fill:#fff;opacity:0.85"/><circle cx="1615.71" cy="344.52" r="6" transform="translate(250.57 1274.9) rotate(-46.31)" style="fill:#fff;opacity:0.85"/><circle cx="1595.71" cy="153.25" r="6" transform="matrix(0.59, -0.81, 0.81, 0.59, 536.73, 1356.72)" style="fill:#fff;opacity:0.85"/><circle cx="1546.52" cy="403.95" r="3" transform="translate(313.17 1420.69) rotate(-54.14)" style="fill:#fff;opacity:0.85"/><circle cx="937.66" cy="37.05" r="6" transform="translate(263.2 689.5) rotate(-46.31)" style="fill:#fff;opacity:0.85"/><circle cx="1076.76" cy="55.13" r="6" transform="translate(346.32 848.17) rotate(-50.28)" style="fill:#fff;opacity:0.85"/><circle cx="1232.81" cy="82.42" r="3" transform="translate(3.04 201.95) rotate(-9.38)" style="fill:#fff;opacity:0.85"/><circle cx="782.99" cy="32.19" r="6" transform="translate(183.58 536.98) rotate(-42.46)" style="fill:#fff;opacity:0.85"/><circle cx="4.11" cy="455.76" r="6" transform="translate(-62.03 4.81) rotate(-7.83)" style="fill:#fff;opacity:0.85"/><circle cx="69.91" cy="277.55" r="6" style="fill:#fff;opacity:0.85"/><circle cx="214.28" cy="291.35" r="3" transform="translate(-37.68 31.9) rotate(-7.83)" style="fill:#fff;opacity:0.85"/><circle cx="142.91" cy="357.55" r="6" style="fill:#fff;opacity:0.85"/><circle cx="421.01" cy="311.44" r="6" transform="translate(-8.26 11.49) rotate(-1.55)" style="fill:#fff;opacity:0.85"/><circle cx="523.89" cy="379.68" r="6" transform="translate(-10.07 14.3) rotate(-1.55)" style="fill:#fff;opacity:0.85"/><circle cx="418.01" cy="422.56" r="3" transform="translate(-11.27 11.45) rotate(-1.55)" style="fill:#fff;opacity:0.85"/><circle cx="246.01" cy="453.13" r="6" transform="translate(-70.54 46.13) rotate(-9.38)" style="fill:#fff;opacity:0.85"/><circle cx="470.67" cy="319.6" r="6" transform="translate(-45.78 80.95) rotate(-9.38)" style="fill:#fff;opacity:0.85"/><circle cx="411.12" cy="456.13" r="3" transform="translate(-68.82 73.07) rotate(-9.38)" style="fill:#fff;opacity:0.85"/><g style="opacity:0.85"><circle cx="567.01" cy="461.86" r="6" style="fill:#fff;opacity:0.89"/><circle cx="638.01" cy="360.86" r="6" style="fill:#fff;opacity:0.89"/><circle cx="678.01" cy="467.86" r="3" style="fill:#fff;opacity:0.89"/><circle cx="800.95" cy="385.62" r="6" transform="translate(-45.05 112.68) rotate(-7.83)" style="fill:#fff;opacity:0.89"/><circle cx="576.52" cy="412.43" r="6" transform="translate(-50.8 82.36) rotate(-7.83)" style="fill:#fff;opacity:0.89"/><circle cx="847.66" cy="446.92" r="6" transform="translate(-52.97 119.61) rotate(-7.83)" style="fill:#fff;opacity:0.89"/><circle cx="829.21" cy="525.07" r="6" transform="translate(-63.78 117.82) rotate(-7.83)" style="fill:#fff;opacity:0.89"/><circle cx="711.38" cy="475.65" r="3" transform="translate(-58.15 101.32) rotate(-7.83)" style="fill:#fff;opacity:0.89"/><circle cx="895.01" cy="346.86" r="6" style="fill:#fff;opacity:0.89"/><circle cx="753.01" cy="355.86" r="6" style="fill:#fff;opacity:0.89"/><circle cx="1006.01" cy="352.86" r="3" style="fill:#fff;opacity:0.89"/><circle cx="1157.21" cy="410.07" r="6" transform="translate(-45.07 161.42) rotate(-7.83)" style="fill:#fff;opacity:0.89"/><circle cx="1039.38" cy="360.65" r="3" transform="translate(-39.43 144.91) rotate(-7.83)" style="fill:#fff;opacity:0.89"/><circle cx="968.01" cy="426.86" r="6" style="fill:#fff;opacity:0.89"/><circle cx="1246.11" cy="380.74" r="6" transform="translate(-9.83 33.82) rotate(-1.55)" style="fill:#fff;opacity:0.89"/><circle cx="1348.99" cy="448.99" r="6" transform="translate(-11.64 36.62) rotate(-1.55)" style="fill:#fff;opacity:0.89"/><circle cx="1243.11" cy="491.87" r="3" transform="translate(-12.84 33.78) rotate(-1.55)" style="fill:#fff;opacity:0.89"/><circle cx="1071.11" cy="522.44" r="6" transform="translate(-70.8 181.48) rotate(-9.38)" style="fill:#fff;opacity:0.89"/><circle cx="1295.77" cy="388.91" r="6" transform="translate(-46.05 216.3) rotate(-9.38)" style="fill:#fff;opacity:0.89"/><circle cx="1236.22" cy="525.44" r="3" transform="translate(-69.09 208.42) rotate(-9.38)" style="fill:#fff;opacity:0.89"/></g><circle cx="16.42" cy="608.85" r="6" style="fill:#fff;opacity:0.85"/><circle cx="56.42" cy="715.85" r="3" style="fill:#fff;opacity:0.85"/><circle cx="226.07" cy="694.92" r="6" transform="translate(-92.54 37.26) rotate(-7.83)" style="fill:#fff;opacity:0.85"/><circle cx="207.62" cy="773.06" r="6" transform="translate(-103.35 35.48) rotate(-7.83)" style="fill:#fff;opacity:0.85"/><circle cx="89.79" cy="723.65" r="3" transform="translate(-97.72 18.97) rotate(-7.83)" style="fill:#fff;opacity:0.85"/><circle cx="273.42" cy="594.85" r="6" style="fill:#fff;opacity:0.85"/><circle cx="384.42" cy="600.85" r="3" style="fill:#fff;opacity:0.85"/><circle cx="535.62" cy="658.06" r="6" transform="translate(-84.63 79.08) rotate(-7.83)" style="fill:#fff;opacity:0.85"/><circle cx="624.51" cy="628.74" r="6" transform="translate(-16.76 17.11) rotate(-1.55)" style="fill:#fff;opacity:0.85"/><circle cx="621.52" cy="739.86" r="3" transform="translate(-19.77 17.07) rotate(-1.55)" style="fill:#fff;opacity:0.85"/><circle cx="449.51" cy="770.43" r="6" transform="translate(-119.51 83.53) rotate(-9.38)" style="fill:#fff;opacity:0.85"/><circle cx="759.12" cy="762.76" r="6" style="fill:#fff;opacity:0.85"/><circle cx="830.12" cy="661.76" r="6" style="fill:#fff;opacity:0.85"/><circle cx="870.12" cy="768.76" r="3" style="fill:#fff;opacity:0.85"/><circle cx="1039.77" cy="747.82" r="6" transform="translate(-92.16 148.58) rotate(-7.83)" style="fill:#fff;opacity:0.85"/><circle cx="1021.32" cy="825.97" r="6" transform="translate(-102.97 146.79) rotate(-7.83)" style="fill:#fff;opacity:0.85"/><circle cx="945.12" cy="656.76" r="6" style="fill:#fff;opacity:0.85"/><circle cx="1198.12" cy="653.76" r="3" style="fill:#fff;opacity:0.85"/><circle cx="1231.49" cy="661.55" r="3" transform="translate(-78.62 173.88) rotate(-7.83)" style="fill:#fff;opacity:0.85"/><circle cx="1160.12" cy="727.76" r="6" style="fill:#fff;opacity:0.85"/><circle cx="1435.22" cy="792.77" r="3" transform="translate(-20.9 39.08) rotate(-1.55)" style="fill:#fff;opacity:0.85"/><circle cx="1263.22" cy="823.34" r="6" transform="translate(-117.26 216.8) rotate(-9.38)" style="fill:#fff;opacity:0.85"/><circle cx="1487.88" cy="689.81" r="6" transform="translate(-92.5 251.61) rotate(-9.38)" style="fill:#fff;opacity:0.85"/><circle cx="1682.57" cy="476.86" r="6" transform="translate(-7.05 25.63) rotate(-0.87)" style="fill:#fff;opacity:0.85"/><circle cx="1784.63" cy="546.31" r="6" transform="translate(-8.1 27.19) rotate(-0.87)" style="fill:#fff;opacity:0.85"/><circle cx="1678.26" cy="587.93" r="3" transform="translate(-8.74 25.57) rotate(-0.87)" style="fill:#fff;opacity:0.85"/><circle cx="1762.35" cy="709.61" r="6" transform="translate(-87.05 274.69) rotate(-8.7)" style="fill:#fff;opacity:0.85"/><circle cx="1732.13" cy="485.61" r="6" transform="translate(-53.52 267.54) rotate(-8.7)" style="fill:#fff;opacity:0.85"/><circle cx="1701.77" cy="757.25" r="6" transform="translate(-94.95 266.07) rotate(-8.7)" style="fill:#fff;opacity:0.85"/><circle cx="1623.35" cy="739.99" r="6" transform="translate(-93.24 254.01) rotate(-8.7)" style="fill:#fff;opacity:0.85"/><circle cx="1670.96" cy="621.42" r="3" transform="translate(-74.76 259.85) rotate(-8.7)" style="fill:#fff;opacity:0.85"/><circle cx="1802.54" cy="803.07" r="6" transform="translate(-12 27.49) rotate(-0.87)" style="fill:#fff;opacity:0.85"/><circle cx="1791.38" cy="661.22" r="6" transform="translate(-9.84 27.3) rotate(-0.87)" style="fill:#fff;opacity:0.85"/><circle cx="1798.23" cy="914.15" r="3" transform="translate(-13.69 27.43) rotate(-0.87)" style="fill:#fff;opacity:0.85"/><circle cx="1743.32" cy="1066.2" r="6" transform="translate(-141.19 275.91) rotate(-8.7)" style="fill:#fff;opacity:0.85"/><circle cx="1790.94" cy="947.64" r="3" transform="translate(-122.71 281.75) rotate(-8.7)" style="fill:#fff;opacity:0.85"/><circle cx="1723.66" cy="877.28" r="6" transform="translate(-13.13 26.3) rotate(-0.87)" style="fill:#fff;opacity:0.85"/><circle cx="1629.66" cy="981.82" r="6" transform="translate(-148.66 305.56) rotate(-10.25)" style="fill:#fff;opacity:0.85"/><g style="opacity:0.85"><circle cx="793.02" cy="1030.55" r="6" style="fill:#fff;opacity:0.89"/><circle cx="955.96" cy="1055.31" r="6" transform="translate(-134.82 140.03) rotate(-7.83)" style="fill:#fff;opacity:0.89"/><circle cx="731.53" cy="1082.12" r="6" transform="translate(-140.56 109.71) rotate(-7.83)" style="fill:#fff;opacity:0.89"/><circle cx="1050.02" cy="1016.55" r="6" style="fill:#fff;opacity:0.89"/><circle cx="908.02" cy="1025.55" r="6" style="fill:#fff;opacity:0.89"/><circle cx="1161.02" cy="1022.55" r="3" style="fill:#fff;opacity:0.89"/><circle cx="1312.22" cy="1079.76" r="6" transform="translate(-134.83 188.77) rotate(-7.83)" style="fill:#fff;opacity:0.89"/><circle cx="1194.39" cy="1030.35" r="3" transform="translate(-129.2 172.27) rotate(-7.83)" style="fill:#fff;opacity:0.89"/><circle cx="1401.12" cy="1050.44" r="6" transform="translate(-27.88 38.25) rotate(-1.55)" style="fill:#fff;opacity:0.89"/><circle cx="1450.78" cy="1058.6" r="6" transform="translate(-153.08 250.5) rotate(-9.38)" style="fill:#fff;opacity:0.89"/></g><g style="opacity:0.85"><circle cx="36.62" cy="945.47" r="6" transform="translate(-128.42 13.8) rotate(-7.83)" style="fill:#fff;opacity:0.89"/><circle cx="83.32" cy="1006.77" r="6" transform="translate(-136.34 20.73) rotate(-7.83)" style="fill:#fff;opacity:0.89"/><circle cx="64.87" cy="1084.92" r="6" transform="translate(-147.15 18.94) rotate(-7.83)" style="fill:#fff;opacity:0.89"/><circle cx="130.67" cy="906.71" r="6" style="fill:#fff;opacity:0.89"/><circle cx="241.67" cy="912.71" r="3" style="fill:#fff;opacity:0.89"/><circle cx="392.87" cy="969.92" r="6" transform="translate(-128.43 62.54) rotate(-7.83)" style="fill:#fff;opacity:0.89"/><circle cx="275.04" cy="920.51" r="3" transform="translate(-122.8 46.04) rotate(-7.83)" style="fill:#fff;opacity:0.89"/><circle cx="203.67" cy="986.71" r="6" style="fill:#fff;opacity:0.89"/><circle cx="481.77" cy="940.6" r="6" transform="translate(-25.24 13.36) rotate(-1.55)" style="fill:#fff;opacity:0.89"/><circle cx="584.65" cy="1008.84" r="6" transform="translate(-27.05 16.17) rotate(-1.55)" style="fill:#fff;opacity:0.89"/><circle cx="478.77" cy="1051.72" r="3" transform="translate(-28.25 13.32) rotate(-1.55)" style="fill:#fff;opacity:0.89"/><circle cx="306.77" cy="1082.29" r="6" transform="translate(-172.22 64.44) rotate(-9.38)" style="fill:#fff;opacity:0.89"/><circle cx="531.43" cy="948.76" r="6" transform="translate(-147.47 99.25) rotate(-9.38)" style="fill:#fff;opacity:0.89"/></g><circle cx="694.99" cy="906.71" r="6" style="fill:#fff;opacity:0.85"/><circle cx="824.12" cy="934.6" r="6" style="fill:#fff;opacity:0.85"/><circle cx="996.67" cy="926.71" r="6" style="fill:#fff;opacity:0.85"/><circle cx="1407.12" cy="920.51" r="6" style="fill:#fff;opacity:0.85"/><circle cx="1429.72" cy="660.05" r="167.97" style="fill:#eaeaea"/><path d="M1487.13,501.84c77.61,23.73,124.57,106.85,108,190.58-16.67,84.39-92.78,143.72-174.16,135.35,73.79-3.84,137.25-59.17,154.35-133.75C1593.18,616.26,1556.49,535.52,1487.13,501.84Z" style="fill:#c9c7c9"/><circle cx="1463.39" cy="751.99" r="14.66" style="fill:#c9c7c9"/><path d="M1464.3,737.33a15,15,0,0,1,14,14.52,14.73,14.73,0,0,1-13.58,14.74,15,15,0,0,0,11.74-14.24A15.32,15.32,0,0,0,1464.3,737.33Z" style="fill:#a3a0a3"/><circle cx="1340.08" cy="703.63" r="32.29" style="fill:#c9c7c9"/><path d="M1342.08,671.34c17.18,1.45,30.56,15.4,30.74,32s-12.6,30.83-29.91,32.46c15.2-3.65,25.52-16.5,25.85-31.37C1369.11,688.92,1358,675,1342.08,671.34Z" style="fill:#adadad"/><circle cx="1492.98" cy="591.23" r="22.7" style="fill:#c9c7c9"/><path d="M1494.39,568.53c12.08,1,21.48,10.83,21.61,22.48a22.81,22.81,0,0,1-21,22.81,23.26,23.26,0,0,0,18.17-22C1513.39,580.88,1505.57,571.11,1494.39,568.53Z" style="fill:#adadad"/><circle cx="1349.55" cy="613.93" r="13.76" style="fill:#c9c7c9"/><path d="M1350.4,600.17a14.1,14.1,0,0,1,13.1,13.63,13.83,13.83,0,0,1-12.74,13.83,14.1,14.1,0,0,0,11-13.37A14.38,14.38,0,0,0,1350.4,600.17Z" style="fill:#adadad"/><circle cx="1410.02" cy="552.4" r="17.73" style="fill:#c9c7c9"/><path d="M1411.12,534.67c9.44.79,16.78,8.46,16.88,17.57a17.82,17.82,0,0,1-16.42,17.82,18.17,18.17,0,0,0,14.2-17.23C1426,544.32,1419.85,536.68,1411.12,534.67Z" style="fill:#adadad"/><circle cx="1457.65" cy="672.99" r="23.82" style="fill:#c9c7c9"/><path d="M1459.13,649.17c12.68,1.07,22.54,11.36,22.68,23.6a23.94,23.94,0,0,1-22.06,23.95,24.41,24.41,0,0,0,19.07-23.14C1479.08,662.13,1470.86,651.87,1459.13,649.17Z" style="fill:#adadad"/><circle cx="1563.88" cy="655.22" r="13.76" style="fill:#c9c7c9"/><path d="M1564.73,641.46a14.1,14.1,0,0,1,13.1,13.63,13.83,13.83,0,0,1-12.74,13.83,14.1,14.1,0,0,0,11-13.37A14.38,14.38,0,0,0,1564.73,641.46Z" style="fill:#adadad"/><circle cx="1400.5" cy="803.07" r="8.22" style="fill:#c9c7c9"/><path d="M1401,794.85a8.42,8.42,0,0,1,7.82,8.14,8.26,8.26,0,0,1-7.61,8.26,8.42,8.42,0,0,0,6.58-8A8.59,8.59,0,0,0,1401,794.85Z" style="fill:#adadad"/></svg>