<svg id="Layer_1" data-name="Layer 1" xmlns="http://www.w3.org/2000/svg" xmlns:xlink="http://www.w3.org/1999/xlink" viewBox="0 0 1929 1138"><defs><linearGradient id="linear-gradient" x1="937.5" y1="1101" x2="937.5" y2="341" gradientUnits="userSpaceOnUse"><stop offset="0" stop-color="#bff5ff"/><stop offset="1" stop-color="#15dbff"/></linearGradient></defs><title>ground</title><rect x="-87" y="-36" width="2049" height="1211" style="fill:url(#linear-gradient)"/><path d="M-104,1155.65c0-246.32,515.28-446,1150.91-446s1150.91,199.68,1150.91,446" style="fill:#3b9e57"/><path d="M1036.05,1254.65c0-246.32,515.28-446,1150.91-446s1150.91,199.68,1150.91,446" style="fill:#3fba65"/><path d="M-1385,1215.65c0-246.32,515.28-446,1150.91-446s1150.91,199.68,1150.91,446" style="fill:#3fba65"/><path d="M-191.95,1382.63c0-246.32,515.28-446,1150.91-446s1150.91,199.68,1150.91,446" style="fill:#4add7b"/><g style="opacity:0.5"><polygon points="295.77 1119.59 261.83 1119.61 253.87 1110.44 258.9 1100.83 297.9 1100.8 318.12 1100.79 322.48 1116.51 295.77 1119.59" style="fill:#3d8e56"/><path d="M607,1109.13l-66.49-25.94a30.81,30.81,0,0,0-10.59-.43,22.14,22.14,0,0,0-11.06,4.38l-23.13-9.59a15.27,15.27,0,0,0-7.95-.87,10.33,10.33,0,0,0-5.77,2.63l-30.35-10.9a18.57,18.57,0,0,0-9.39-.58,11.8,11.8,0,0,0-5.77,2.77L409,1059.7a31.24,31.24,0,0,0-10.83.44,20.68,20.68,0,0,0-8.66,3.94L368.11,1055a27.55,27.55,0,0,0-12.64-1.91c-10.52.82-29.06,3.61-43.92,13.23-27.31,17.69-16.4,41.8-15.8,43Z" style="fill:#3d8e56"/><path d="M605.56,1109.14l-66.39,26a30.79,30.79,0,0,1-10.59.44,22.2,22.2,0,0,1-11.08-4.36l-23.09,9.63a15.26,15.26,0,0,1-7.94.88,10.36,10.36,0,0,1-5.78-2.62l-30.31,10.94a18.56,18.56,0,0,1-9.39.59,11.83,11.83,0,0,1-5.78-2.76l-27.42,10.94a31.25,31.25,0,0,1-10.83-.43,20.74,20.74,0,0,1-8.67-3.93l-21.39,9.12a27.52,27.52,0,0,1-12.63,1.92c-10.52-.81-29.08-3.56-44-13.17-27.38-17.65-16.57-41.78-16-43Z" style="fill:#3d8e56"/></g><polygon points="279.79 1059.45 279.79 1112.45 256.11 1124.85 231.31 1116.96 231.31 1056.07 231.31 1024.5 271.9 1017.74 279.79 1059.45" style="fill:#3d322a"/><path d="M253.39,573.5,186.3,677.23a29.68,29.68,0,0,0-1.13,16.54,30.17,30.17,0,0,0,11.28,17.29l-24.81,36.08a15.54,15.54,0,0,0-2.26,12.4,15.33,15.33,0,0,0,6.77,9L148,815.91a18.38,18.38,0,0,0-1.5,14.66,17.8,17.8,0,0,0,7.14,9l-28.19,42.85a29.76,29.76,0,0,0,11.28,30.44L113.2,946.31A28.13,28.13,0,0,0,108.26,966c2.1,16.43,9.25,45.38,34.07,68.61,45.62,42.7,107.86,25.74,111.06,24.81Z" style="fill:#54d654"/><path d="M253.39,575.76l67.09,103.73A29.68,29.68,0,0,1,321.6,696a30.17,30.17,0,0,1-11.28,17.29l24.81,36.08a15.54,15.54,0,0,1,2.26,12.4,15.33,15.33,0,0,1-6.77,9l28.19,47.36a18.38,18.38,0,0,1,1.5,14.66,17.8,17.8,0,0,1-7.14,9l28.19,42.85a29.76,29.76,0,0,1-11.28,30.44l23.49,33.43a28.13,28.13,0,0,1,4.94,19.73c-2.1,16.43-9.25,45.38-34.07,68.61-45.62,42.7-107.86,25.74-111.06,24.81Z" style="fill:#46a546"/><g style="opacity:0.5"><polygon points="1465.77 1063.09 1431.83 1063.12 1423.87 1053.95 1428.9 1044.34 1467.9 1044.31 1488.12 1044.29 1492.48 1060.02 1465.77 1063.09" style="fill:#3d8e56"/><path d="M1754.66,1060l-286.25-6.47c-.6-1.24-11.51-25.35,15.8-43,14.86-9.63,33.4-12.41,43.92-13.23a27.55,27.55,0,0,1,12.64,1.91l21.43,9.09c1-.82,3.75-2.33,8.65-3.44,20.34,5.21,41,10.31,62.06,16.35C1675.51,1033.4,1716.11,1046.46,1754.66,1060Z" style="fill:#3d8e56"/><path d="M1754.66,1060.84l-45.49,17.84a30.79,30.79,0,0,1-10.59.44,22.2,22.2,0,0,1-11.08-4.36l-23.09,9.63a15.26,15.26,0,0,1-7.94.88,10.36,10.36,0,0,1-5.78-2.62l-30.31,10.94a18.56,18.56,0,0,1-9.39.59,11.83,11.83,0,0,1-5.78-2.76l-27.42,10.94a31.25,31.25,0,0,1-10.83-.43,20.74,20.74,0,0,1-8.67-3.93l-21.39,9.12a27.52,27.52,0,0,1-12.63,1.92c-10.52-.81-29.08-3.56-44-13.17-27.38-17.65-16.57-41.78-16-43Z" style="fill:#3d8e56"/></g><polygon points="1449.79 1002.96 1449.79 1055.95 1426.11 1068.36 1401.31 1060.46 1401.31 999.58 1401.31 968.01 1441.9 961.25 1449.79 1002.96" style="fill:#3d322a"/><path d="M1423.39,517,1356.3,620.74a29.68,29.68,0,0,0-1.13,16.54,30.17,30.17,0,0,0,11.28,17.29l-24.81,36.08a15.54,15.54,0,0,0-2.26,12.4,15.33,15.33,0,0,0,6.77,9L1318,759.42a18.38,18.38,0,0,0-1.5,14.66,17.8,17.8,0,0,0,7.14,9l-28.19,42.85a29.76,29.76,0,0,0,11.28,30.44l-23.49,33.43a28.13,28.13,0,0,0-4.94,19.73c2.1,16.43,9.25,45.38,34.07,68.61,45.62,42.7,107.86,25.74,111.06,24.81Z" style="fill:#54d654"/><path d="M1423.39,519.26,1490.48,623a29.68,29.68,0,0,1,1.13,16.54,30.17,30.17,0,0,1-11.28,17.29l24.81,36.08a15.54,15.54,0,0,1,2.26,12.4,15.33,15.33,0,0,1-6.77,9l28.19,47.36a18.38,18.38,0,0,1,1.5,14.66,17.8,17.8,0,0,1-7.14,9l28.19,42.85a29.76,29.76,0,0,1-11.28,30.44l23.49,33.43a28.13,28.13,0,0,1,4.94,19.73c-2.1,16.43-9.25,45.38-34.07,68.61-45.62,42.7-107.86,25.74-111.06,24.81Z" style="fill:#46a546"/></svg>